<?xml version="1.0" encoding="UTF-8"?>
<svg enable-background="new 0 0 511.999 511.999" version="1.1" viewBox="0 0 512 512" xml:space="preserve" xmlns="http://www.w3.org/2000/svg">
<path d="m332.73 57.898c-10.532-31.202-24.852-53.533-25.455-54.468-1.578-2.441-4.423-3.752-7.302-3.362-1.104 0.148-27.38 3.784-57.937 16.063-41.117 16.522-70.092 40.983-83.795 70.736-22.852 49.623-46.716 149.61-53.196 222.89-0.279 3.156 1.456 6.147 4.334 7.473l80.786 37.204c1.006 0.463 2.075 0.687 3.135 0.687 1.975 0 3.918-0.78 5.36-2.253 51.469-52.556 111.94-135.69 134.79-185.31 13.702-29.752 13.453-67.671-0.72-109.66z" fill="#EBEEF2"/>
<path d="m332.73 57.898c-10.532-31.202-24.852-53.533-25.455-54.468-1.578-2.441-4.423-3.752-7.302-3.362-0.27 0.036-2.058 0.284-5.041 0.814 3.612 7.412 11.512 25.025 17.188 47.84 9.982 40.119 8.046 77.065-5.598 106.84-22.757 49.667-80.233 134.13-128.12 188.28-1.342 1.517-3.082 2.388-4.805 2.5-0.361 0.023-0.721 3e-3 -1.077-0.041l17.646 8.126c1.006 0.463 2.075 0.687 3.135 0.687 1.975 0 3.918-0.78 5.36-2.253 51.469-52.556 111.94-135.69 134.79-185.31 13.703-29.752 13.454-67.671-0.719-109.66z" fill="#D1D6DE"/>
<path d="m299.98 0.068c-1.104 0.148-27.38 3.784-57.937 16.063-25.167 10.113-45.776 23.205-61.128 38.66l162.36 72.287c1.33-21.087-2.181-44.425-10.538-69.179-10.531-31.203-24.851-53.534-25.454-54.469-1.578-2.441-4.423-3.752-7.302-3.362z" fill="#5C9CEE"/>
<path d="m294.94 0.882c3.612 7.412 11.512 25.025 17.188 47.84 5.885 23.654 7.624 46.203 5.266 66.832l25.882 11.523c2.514-39.82-15.238-91.495-35.993-123.65-1.578-2.441-4.423-3.752-7.302-3.362-0.034 5e-3 -0.092 0.013-0.172 0.024-0.565 0.078-2.26 0.326-4.869 0.79z" fill="#3580D3"/>
<circle cx="237.37" cy="145.61" r="28.974" fill="#8088A0"/>
<path d="m192.09 283.24c-2.152-5.826-6.443-10.465-12.084-13.063-5.642-2.598-11.957-2.843-17.781-0.691-5.826 2.152-10.465 6.443-13.063 12.084-0.149 0.324-0.275 0.659-0.377 1.001l-22.808 76.758c-1.702 5.729 1.003 11.703 6.432 14.203 1.633 0.752 3.343 1.112 5.027 1.112 3.913 0 7.676-1.949 9.946-5.458l43.501-67.228c0.194-0.299 0.366-0.613 0.516-0.937 2.597-5.641 2.843-11.956 0.691-17.781z" fill="#ED5575"/>
<path d="m394.78 117.33c-11.661-3.81-24.106-2.853-35.043 2.697-10.938 5.55-19.062 15.027-22.872 26.686l-6.474 19.805c-7.866 24.068 5.315 50.049 29.384 57.916 4.722 1.543 9.515 2.276 14.232 2.276 19.33 0 37.358-12.313 43.683-31.659l6.473-19.805c7.866-24.069-5.315-50.05-29.383-57.916z" fill="#F9C295"/>
<path d="m459.68 100.93c-1.771-1.993-4.464-2.897-7.085-2.369l-29.079 5.85c-0.372 0.076-0.762 0.052-1.125-0.066l-28.414-9.287c-20.043-6.549-41.674 4.426-48.225 24.467l-11.117 34.017c-1.287 3.938 0.861 8.172 4.799 9.459l22.67 7.409c0.76 0.248 1.546 0.371 2.33 0.371 1.168 0 2.332-0.273 3.394-0.812 1.774-0.9 3.118-2.468 3.735-4.359l0.396-1.21c1.579-4.833 6.795-7.48 11.631-5.901l13.749 4.494c22.902 7.484 47.623-5.058 55.109-27.959l8.756-26.791c0.827-2.535 0.247-5.319-1.524-7.313z" fill="#444966"/>
<path d="m348.32 222.77c-17.454-12.919-42.171-9.232-55.093 8.222l-54.413 73.486c-1.256 1.696-1.739 3.844-1.331 5.915s1.671 3.874 3.478 4.966l54.826 33.143c1.209 0.731 2.549 1.082 3.875 1.082 2.306 0 4.57-1.063 6.032-3.038l50.852-68.678c5.059-6.846 7.732-14.941 7.732-23.411 1e-3 -12.444-5.964-24.29-15.958-31.687z" fill="#9FD479"/>
<g fill="#7DB24F">
	<path d="m348.32 222.77c-1.772-1.312-3.621-2.443-5.523-3.415 4.951 6.715 7.738 14.936 7.738 23.438 0 8.47-2.674 16.565-7.732 23.411l-50.852 68.678c-1.462 1.975-3.727 3.038-6.032 3.038-1.326 0-2.666-0.351-3.875-1.082l-44.638-26.984c0.022 0.18 0.042 0.361 0.077 0.541 0.409 2.071 1.671 3.874 3.478 4.966l54.826 33.143c1.209 0.731 2.549 1.082 3.875 1.082 2.306 0 4.57-1.063 6.032-3.038l50.852-68.678c5.059-6.846 7.732-14.941 7.732-23.411 1e-3 -12.446-5.964-24.292-15.958-31.689z"/>
	<path d="m337.85 240.04c-3.905-4.747-9.42-7.694-15.534-8.304l-120.18-13.422c-0.036-4e-3 -0.071-8e-3 -0.106-0.011-12.675-1.237-23.978 8.072-25.21 20.741-1.23 12.648 8.044 23.941 20.681 25.204l120.18 13.422c0.035 4e-3 0.07 8e-3 0.106 0.011 0.762 0.074 1.521 0.111 2.276 0.111 5.33 0 10.453-1.829 14.623-5.26 4.762-3.917 7.713-9.455 8.31-15.591 0.597-6.138-1.232-12.14-5.149-16.901z"/>
</g>
<g fill="#DCE0E5">
	<path d="m132.45 494.88h-74.528c-4.142 0-7.5-3.358-7.5-7.5s3.358-7.5 7.5-7.5h74.528c4.142 0 7.5 3.358 7.5 7.5s-3.358 7.5-7.5 7.5z"/>
	<path d="m132.45 451.83h-52.372c-4.142 0-7.5-3.358-7.5-7.5s3.358-7.5 7.5-7.5h52.372c4.142 0 7.5 3.358 7.5 7.5s-3.358 7.5-7.5 7.5z"/>
	<path d="m132.45 408.78h-22.16c-4.142 0-7.5-3.358-7.5-7.5s3.358-7.5 7.5-7.5h22.16c4.142 0 7.5 3.358 7.5 7.5s-3.358 7.5-7.5 7.5z"/>
</g>
<path d="m222.01 222.8c-1.242-1.594-3.075-2.619-5.083-2.843l-14.788-1.652c-0.036-4e-3 -0.071-8e-3 -0.106-0.011-12.661-1.224-23.977 8.072-25.209 20.74-0.597 6.137 1.231 12.139 5.149 16.901 3.905 4.747 9.42 7.694 15.533 8.304l13.547 1.513c0.283 0.032 0.563 0.047 0.841 0.047 3.702 0 6.911-2.735 7.422-6.488l4.209-30.887c0.273-2.003-0.273-4.031-1.515-5.624z" fill="#F9C295"/>
<path d="m291.48 362.11c-0.281-1.99-1.35-3.784-2.964-4.979l-51.26-37.947c-2.276-1.685-5.308-1.94-7.837-0.665-1.405 0.708-2.521 1.823-3.236 3.16l-80.213 143.83c-1.962 3.518-0.794 7.958 2.644 10.055l34.382 20.978c1.215 0.742 2.565 1.098 3.901 1.098 2.267 0 4.495-1.026 5.961-2.943l97.153-126.98c1.22-1.597 1.75-3.616 1.469-5.606z" fill="#2E344C"/>
<path d="m356.06 367.42-107.34-64.897c-3.311-2.001-7.604-1.155-9.907 1.955l-12.044 16.264c-0.242 0.327-0.457 0.673-0.641 1.033l-2.325 4.169c-9.489 17.015-3.938 38.362 12.638 48.6l69.118 42.682-20.639 73.934c-1.104 3.954 1.177 8.061 5.116 9.214l38.662 11.319c0.69 0.202 1.4 0.302 2.107 0.302 1.26 0 2.513-0.318 3.635-0.94 1.752-0.971 3.043-2.602 3.585-4.53l30.271-107.69c3.52-12.017-1.509-24.936-12.231-31.417z" fill="#656D88"/>
</svg>
