<?xml version="1.0" encoding="UTF-8"?>
<svg viewBox="-3 0 471 472" xmlns="http://www.w3.org/2000/svg">
<path d="m256.5 256h102.28c21.023-0.34766 38.93 15.207 41.527 36.07 1.1094 11.238-2.5859 22.422-10.168 30.789s-18.348 13.141-29.641 13.141c57.441 0 104-16 104-80v-184c0-13.254-10.746-24-24-24h-184c-17.672 0-32 14.328-32 32v144c0 17.672 14.328 32 32 32z" fill="#e32210"/>
<path d="m320.5 88c-8.8359 0-16 7.1641-16 16v40c0 8.8359 7.1641 16 16 16h8c8.8359 0 16 7.1641 16 16v24c0 8.8359 7.1641 16 16 16s16-7.1641 16-16v-24c0-8.8359 7.1641-16 16-16h8v-72z" fill="#fff5e0"/>
<path d="m432.5 168v-88h-32v88z" fill="#d9d9d9"/>
<path d="m256.5 48c-17.672 0-32 14.328-32 32v128h32c13.254 0 24-10.746 24-24v-136z" fill="#c21d0e"/>
<path d="m288.5 200h32v16h-32z" fill="#fff5e0"/>
<path d="m248.5 0h-224c-13.254 0-24 10.746-24 24v176c0 64 46.559 80 104 80-11.293 0.003906-22.062-4.7695-29.648-13.137-7.582-8.3672-11.277-19.551-10.168-30.793 2.5977-20.867 20.508-36.422 41.535-36.07h142.28c13.254 0 24-10.746 24-24v-152c0-13.254-10.746-24-24-24z" fill="#1cc8eb"/>
<path d="m288.5 400-40.848 20.426c-9.5391 4.7656-20.766 4.7656-30.305 0l-40.848-20.426c-17.672 0-32 14.328-32 32v40h176v-40c0-17.672-14.328-32-32-32z" fill="#d9d9d9"/>
<path d="m165.09 278.93c-6.793 18.062-6.0156 38.098 2.1562 55.578 8.1719 17.484 23.043 30.934 41.258 37.309v4.1836c0 17.672-14.328 24-32 24l40.848 20.426c9.5391 4.7656 20.766 4.7656 30.305 0l40.848-20.426c-17.672 0-32-6.3281-32-24v-4.1836c29.566-10.422 48.984-38.785 48-70.121-0.054688-1.918 0.089844-3.8086-0.12891-5.6953h-95.871c-16.109 0-31.621-6.0977-43.414-17.07z" fill="#fff5e0"/>
<path d="m165.09 278.93c11.793 10.973 27.305 17.07 43.414 17.07h95.832c0.039063-16.957-6.668-33.23-18.645-45.238-11.973-12.004-28.23-18.754-45.188-18.762h-96c-0.003906 17.832 7.4609 34.852 20.586 46.93z" fill="#a3771d"/>
<path d="m176.5 88h-8c-8.8359 0-16-7.1641-16-16v-24c0-8.8359-7.1641-16-16-16s-16 7.1641-16 16v24c0 8.8359-7.1641 16-16 16h-8v72h80c8.8359 0 16-7.1641 16-16v-40c0-8.8359-7.1641-16-16-16z" fill="#fff5e0"/>
<path d="m96.5 80h-32v88h32z" fill="#d9d9d9"/>
<path d="m208.5 24h-16v8h-8v16h8v8h16v-8h8v-16h-8z" fill="#fff5e0"/>
</svg>
