<?xml version="1.0" encoding="UTF-8"?>
<svg enable-background="new 0 0 512 512" version="1.1" viewBox="0 0 512 512" xml:space="preserve" xmlns="http://www.w3.org/2000/svg">
<path d="m296.98 145.66h-81.964c-6.803 0-12.499 5.155-13.175 11.924l-7.636 76.352h123.59l-7.635-76.352c-0.677-6.77-6.373-11.924-13.176-11.924z" fill="#AFB9D2"/>
<rect x="17.655" y="233.93" width="476.69" height="158.9" fill="#E1C3A0"/>
<g fill="#EBD2AF">
	<path d="m17.655 436.97c-4.875 0-8.828-3.953-8.828-8.828v-194.21h17.655v194.21c1e-3 4.875-3.952 8.828-8.827 8.828z"/>
	<path d="m494.34 436.97c-4.875 0-8.828-3.953-8.828-8.828v-194.21h17.655v194.21c0 4.875-3.952 8.828-8.827 8.828z"/>
</g>
<polygon points="277.6 172.92 277.6 153.89 234.4 153.89 234.4 172.92 256 194.68" fill="#D29B6E"/>
<path d="m310.46 176.35-29.409-6.596c-0.444-0.099-0.853-0.268-1.235-0.473l-23.82 13.244-22.891-13.885c-0.593 0.532-1.329 0.927-2.164 1.114l-29.409 6.596c-4.295 0.963-7.329 4.616-7.329 8.821v39.928c0 2.503 2.129 4.531 4.754 4.531h114.08c2.625 0 4.754-2.028 4.754-4.531v-39.929c-2e-3 -4.204-3.036-7.857-7.331-8.82z" fill="#707487"/>
<g fill="#5B5D6E">
	<path d="m300.34 192.75 15.401-13.187c1.291 1.558 2.047 3.518 2.047 5.615v39.929c0 2.503-2.129 4.531-4.754 4.531h-16.637v-28.462c1e-3 -3.214 1.434-6.278 3.943-8.426z"/>
	<path d="m211.66 192.75-15.401-13.187c-1.291 1.558-2.047 3.518-2.047 5.615v39.929c0 2.503 2.129 4.531 4.754 4.531h16.637v-28.462c-1e-3 -3.214-1.434-6.278-3.943-8.426z"/>
	<polygon points="261.94 229.63 250.06 229.63 251.54 182.45 260.46 182.45"/>
	<path d="m234.28 163.89 21.724 18.636s-6.083 2.927-13.591 8.828c-1.549 1.217-3.892 0.724-4.722-1.017l-10.206-21.402 3.229-4.617c0.802-1.15 2.489-1.352 3.566-0.428z"/>
	<path d="m277.72 163.89-21.724 18.636s6.083 2.927 13.591 8.828c1.549 1.217 3.892 0.724 4.722-1.017l10.206-21.402-3.229-4.617c-0.802-1.15-2.489-1.352-3.566-0.428z"/>
</g>
<path d="m264.83 75.034h-17.655c-14.626 0-26.483 11.857-26.483 26.483v19.17c0 4.682 1.86 9.173 5.171 12.484l3.657 3.656h52.966l3.657-3.657c3.311-3.311 5.171-7.801 5.171-12.484v-19.169c-2e-3 -14.626-11.858-26.483-26.484-26.483z" fill="#694B4B"/>
<path d="m228.58 120.51 1.131 25.446c0.177 3.969 2.08 7.65 5.19 10.035l8.963 6.872c2.251 1.726 4.99 2.659 7.804 2.659h8.671c2.814 0 5.553-0.934 7.804-2.659l8.963-6.872c3.109-2.385 5.013-6.065 5.19-10.035l1.131-25.446c0.413-9.284-6.838-17.043-15.928-17.043h-22.987c-9.093 0-16.345 7.758-15.932 17.043z" fill="#F0C087"/>
<path d="m503.17 225.1h-494.34c-4.875 0-8.828 3.953-8.828 8.828s3.953 8.828 8.828 8.828h494.34c4.875 0 8.828-3.953 8.828-8.828-1e-3 -4.875-3.954-8.828-8.829-8.828z" fill="#F0DCBE"/>
<path d="m441.38 225.1c-4.875 0-8.828-3.953-8.828-8.828v-66.964l-24.966-24.97c-3.336-3.332-7.772-5.171-12.487-5.171h-6.686v17.655c0 4.875-3.953 8.828-8.828 8.828s-8.828-3.953-8.828-8.828v-26.483c0-4.875 3.953-8.828 8.828-8.828h15.516c9.427 0 18.293 3.672 24.97 10.338l27.552 27.559c1.655 1.655 2.586 3.901 2.586 6.241v70.621c-1e-3 4.878-3.954 8.83-8.829 8.83z" fill="#C7CFE2"/>
<g fill="#AFB9D2">
	<path d="m388.41 136.83h-17.655c-9.751 0-17.655 7.904-17.655 17.655v6.621c0 1.219 0.988 2.207 2.207 2.207h48.552c1.219 0 2.207-0.988 2.207-2.207v-6.621c-1e-3 -9.751-7.906-17.655-17.656-17.655z"/>
	<path d="m459.03 225.1h-61.793v-8.828c0-4.875 3.953-8.828 8.828-8.828h44.138c4.875 0 8.828 3.953 8.828 8.828v8.828z"/>
</g>
<g fill="#959CB3">
	<circle cx="379.59" cy="110.34" r="8.828"/>
	<circle cx="441.38" cy="145.66" r="8.828"/>
</g>
<path d="m139.03 225.1h-83.862c-1.219 0-2.207-0.988-2.207-2.207v-13.241c0-1.219 0.988-2.207 2.207-2.207h83.862c1.219 0 2.207 0.988 2.207 2.207v13.241c0 1.22-0.987 2.207-2.207 2.207z" fill="#707487"/>
<path d="m139.03 189.79h-75.034c-1.219 0-2.207-0.988-2.207-2.207v-13.241c0-1.219 0.988-2.207 2.207-2.207h75.034c1.219 0 2.207 0.988 2.207 2.207v13.241c0 1.22-0.987 2.207-2.207 2.207z" fill="#AFB9D2"/>
<g fill="#C7CFE2">
	<path d="m147.86 172.14h-66.207c-1.219 0-2.207-0.988-2.207-2.207v-13.241c0-1.219 0.988-2.207 2.207-2.207h66.207c1.219 0 2.207 0.988 2.207 2.207v13.241c0 1.219-0.988 2.207-2.207 2.207z"/>
	<path d="m147.86 207.45h-75.034c-1.219 0-2.207-0.988-2.207-2.207v-13.241c0-1.219 0.988-2.207 2.207-2.207h75.034c1.219 0 2.207 0.988 2.207 2.207v13.241c0 1.22-0.988 2.207-2.207 2.207z"/>
</g>
<path d="m368.55 225.1h-22.069c-1.219 0-2.207-0.988-2.207-2.207v-30.896c0-1.219 0.988-2.207 2.207-2.207h22.069c1.219 0 2.207 0.988 2.207 2.207v30.897c0 1.219-0.989 2.206-2.207 2.206z" fill="#C5D0E4"/>
</svg>
